<svg xmlns="http://www.w3.org/2000/svg" width="88" height="100.551" viewBox="0 0 88 100.551">
  <g id="Group_16" data-name="Group 16" transform="translate(-505.695 -575.881)">
    <g id="Group_15" data-name="Group 15" transform="translate(510.128 578.314)">
      <g id="Group_14" data-name="Group 14" transform="translate(0 0)">
        <path id="Subtraction_2" data-name="Subtraction 2" d="M64.367,29.443h0c-.145,0-.289,0-.428-.008a32.241,32.241,0,0,1-7.356-1.346c-2.058-.6-3.52-1.19-3.534-1.2a14.014,14.014,0,0,1-2.217-1.44,14.4,14.4,0,0,1-3.812-4.411,41.317,41.317,0,0,1-3.251-9.176c-.012-.021-1.246-2.115-2.483-2.115s-2.313,2.094-2.324,2.115L36.971,18.44a34.48,34.48,0,0,1-2.427,3.625,24.754,24.754,0,0,1-2.565,2.9,11.4,11.4,0,0,1-3.048,2.168A29.108,29.108,0,0,1,21.811,29c-2.2.331-3.917.432-3.934.433a20.491,20.491,0,0,1-4.1-.606,16.734,16.734,0,0,1-3.588-1.323A10.6,10.6,0,0,1,6.94,25,14.49,14.49,0,0,1,4.8,21.563a19.343,19.343,0,0,1-1.149-3.375A19.379,19.379,0,0,1,3.1,14.6c-.006-.046-.593-4.587-1.3-5.675A3.819,3.819,0,0,0,0,7.47V1.276H0c.072-.007.485-.041,1.521-.041.675,0,1.48.014,2.395.042L5.2,1.168h.005C9.614.794,18.789.016,23.424.016c.374,0,.715.005,1.014.015a39.564,39.564,0,0,1,5.647.592,34.107,34.107,0,0,1,4.192,1.024,20.864,20.864,0,0,1,3.508,1.4h7.1A33.072,33.072,0,0,1,49.088,1.7,55.9,55.9,0,0,1,60.4.031C60.851.011,61.361,0,61.917,0c6.17,0,17.051,1.283,17.16,1.3h3.706V7.787c0-.015-.009-.051-.065-.051-.136,0-.518.21-1.566,1.21-.963.919-1.161,2.663-1.434,5.078a43.4,43.4,0,0,1-1.1,6.45,8.97,8.97,0,0,1-2.127,3.744,14.636,14.636,0,0,1-3.633,2.823A18.21,18.21,0,0,1,64.367,29.443Zm-2.5-26.42c-4.912,0-10.885.387-13.5,3.4a5.7,5.7,0,0,0-1.205,4.746c1,6.983,4.882,15.307,17.722,15.308.311,0,.631-.005.952-.015,3.788-.118,6.692-1.507,8.631-4.128a15.364,15.364,0,0,0,2.606-7.809A20.449,20.449,0,0,0,76.6,8.022c-.512-1.878-2.25-3.251-5.165-4.082a30.759,30.759,0,0,0-7.949-.912l-.706,0h0Zm-40.766,0-.9,0H20.2l-.706,0a30.759,30.759,0,0,0-7.949.912c-2.915.831-4.653,2.2-5.165,4.082A20.45,20.45,0,0,0,5.9,14.529a15.364,15.364,0,0,0,2.606,7.809c1.939,2.622,4.843,4.011,8.631,4.128.321.01.641.015.952.015,12.84,0,16.724-8.325,17.722-15.308a5.7,5.7,0,0,0-1.2-4.746C31.989,3.409,26.016,3.023,21.1,3.023Z" transform="translate(0 23.036)" fill="#14458b"/>
        <path id="Path_24" data-name="Path 24" d="M1506.973,2480.315V2458.7h41.872l15.716,15.716v5.894" transform="translate(-1494.083 -2458.137)" fill="none" stroke="#8dc640" stroke-width="6"/>
        <path id="Path_25" data-name="Path 25" d="M1597.353,2458.7v16.9h18.065" transform="translate(-1543.645 -2458.705)" fill="none" stroke="#8dc640" stroke-width="6"/>
        <path id="Path_26" data-name="Path 26" d="M1506.5,2526.688v18.052" transform="translate(-1493.61 -2497.985)" fill="none" stroke="#8dc640" stroke-width="6"/>
        <path id="Path_27" data-name="Path 27" d="M1506.5,2526.688v18.052" transform="translate(-1436.465 -2497.985)" fill="none" stroke="#8dc640" stroke-width="6"/>
        <path id="Path_28" data-name="Path 28" d="M1506.5,2583.667v21.442h56.765v-21.442" transform="translate(-1493.61 -2530.483)" fill="none" stroke="#8dc640" stroke-width="6"/>
      </g>
      <path id="Subtraction_3" data-name="Subtraction 3" d="M5.156,10.312A5.16,5.16,0,0,1,.275,3.49,2.554,2.554,0,0,0,2.148,4.3a2.578,2.578,0,0,0,2-4.2,5.2,5.2,0,0,1,1-.1A5.156,5.156,0,0,1,8.8,8.8,5.123,5.123,0,0,1,5.156,10.312Zm0-6.875A1.719,1.719,0,1,0,6.875,5.156,1.721,1.721,0,0,0,5.156,3.437Z" transform="translate(21.198 32.157)" fill="#14458b"/>
      <path id="Subtraction_4" data-name="Subtraction 4" d="M5.156,10.312A5.159,5.159,0,0,1,.416,3.124,2.578,2.578,0,1,0,4.532.037,5.226,5.226,0,0,1,5.156,0,5.156,5.156,0,0,1,8.8,8.8,5.123,5.123,0,0,1,5.156,10.312Zm.43-6.875A1.719,1.719,0,1,0,7.3,5.156,1.721,1.721,0,0,0,5.585,3.437Z" transform="translate(51.704 32.157)" fill="#14458b"/>
      <path id="Path_29" data-name="Path 29" d="M2030.395,2535.341h25.663a21.879,21.879,0,0,1-6.051,3.377,20.906,20.906,0,0,1-6.781.844,16.747,16.747,0,0,1-5.909-.844A38.685,38.685,0,0,1,2030.395,2535.341Z" transform="translate(-2003.012 -2475.539)" fill="#14458b"/>
    </g>
    <text id="SMART_EXTRACT" data-name="SMART EXTRACT" transform="translate(505.695 673.433)" fill="#8dc640" font-size="12" font-family="EncodeSans-SemiBold, Encode Sans" font-weight="600" letter-spacing="-0.045em"><tspan x="0" y="0">SMART</tspan><tspan y="0" fill="#6d6d6d"> </tspan><tspan y="0" fill="#14458b" font-family="EncodeSans-Light, Encode Sans" font-weight="300">EXTRACT</tspan></text>
  </g>
</svg>
