<svg xmlns="http://www.w3.org/2000/svg" width="675.428" height="503.275" viewBox="0 0 675.428 503.275">
  <g id="Product_iteration-rafiki_1_" data-name="Product iteration-rafiki (1)" transform="translate(0 -55)">
    <g id="freepik--background-complete--inject-33" transform="translate(0 55)">
      <rect id="Rectangle_8" data-name="Rectangle 8" width="675.428" height="0.338" transform="translate(0 442.27)" fill="#ebebeb"/>
      <rect id="Rectangle_9" data-name="Rectangle 9" width="44.74" height="0.338" transform="translate(177.597 463.101)" fill="#ebebeb"/>
      <rect id="Rectangle_10" data-name="Rectangle 10" width="11.739" height="0.338" transform="translate(337.917 459.44)" fill="#ebebeb"/>
      <rect id="Rectangle_11" data-name="Rectangle 11" width="25.923" height="0.338" transform="translate(70.866 453.739)" fill="#ebebeb"/>
      <rect id="Rectangle_12" data-name="Rectangle 12" width="35.23" height="0.338" transform="translate(526.429 451.47)" fill="#ebebeb"/>
      <rect id="Rectangle_13" data-name="Rectangle 13" width="31.664" height="0.338" transform="translate(482.729 451.47)" fill="#ebebeb"/>
      <rect id="Rectangle_14" data-name="Rectangle 14" width="126.548" height="0.338" transform="translate(481.216 467.68)" fill="#ebebeb"/>
      <path id="Path_30" data-name="Path 30" d="M306.747,437.022H45.91a7.713,7.713,0,0,1-7.7-7.713V62.646A7.713,7.713,0,0,1,45.91,55H306.747a7.713,7.713,0,0,1,7.713,7.713v366.6A7.713,7.713,0,0,1,306.747,437.022ZM45.91,55.27a7.376,7.376,0,0,0-7.362,7.376V429.309a7.376,7.376,0,0,0,7.362,7.376H306.747a7.389,7.389,0,0,0,7.376-7.376V62.646a7.389,7.389,0,0,0-7.376-7.376Z" transform="translate(13.406 -55)" fill="#ebebeb"/>
      <path id="Path_31" data-name="Path 31" d="M523.064,437.022H262.213a7.727,7.727,0,0,1-7.713-7.713V62.646A7.727,7.727,0,0,1,262.213,55h260.85a7.713,7.713,0,0,1,7.686,7.646V429.309A7.713,7.713,0,0,1,523.064,437.022ZM262.213,55.27a7.389,7.389,0,0,0-7.376,7.376V429.309a7.389,7.389,0,0,0,7.376,7.376h260.85a7.389,7.389,0,0,0,7.376-7.376V62.646a7.389,7.389,0,0,0-7.376-7.376Z" transform="translate(89.293 -55)" fill="#ebebeb"/>
      <rect id="Rectangle_15" data-name="Rectangle 15" width="14.225" height="67.516" transform="translate(113.688 228.146)" fill="#f0f0f0"/>
      <rect id="Rectangle_16" data-name="Rectangle 16" width="9.645" height="45.781" transform="translate(115.971 233.347)" fill="#fafafa"/>
      <rect id="Rectangle_17" data-name="Rectangle 17" width="30.367" height="67.516" transform="translate(158.266 295.676) rotate(180)" fill="#e0e0e0"/>
      <rect id="Rectangle_18" data-name="Rectangle 18" width="14.225" height="67.516" transform="translate(130.871 228.146)" fill="#f0f0f0"/>
      <rect id="Rectangle_19" data-name="Rectangle 19" width="9.645" height="45.781" transform="translate(133.167 233.347)" fill="#fafafa"/>
      <rect id="Rectangle_20" data-name="Rectangle 20" width="30.367" height="67.516" transform="translate(175.463 295.676) rotate(180)" fill="#e0e0e0"/>
      <rect id="Rectangle_21" data-name="Rectangle 21" width="5.147" height="240.398" transform="translate(159.874 201.858)" fill="#ebebeb"/>
      <rect id="Rectangle_22" data-name="Rectangle 22" width="5.147" height="240.398" transform="translate(73.595 201.858)" fill="#ebebeb"/>
      <rect id="Rectangle_23" data-name="Rectangle 23" width="5.147" height="240.398" transform="translate(182.041 201.858)" fill="#ebebeb"/>
      <rect id="Rectangle_24" data-name="Rectangle 24" width="5.147" height="240.398" transform="translate(95.762 201.858)" fill="#ebebeb"/>
      <rect id="Rectangle_25" data-name="Rectangle 25" width="14.225" height="67.516" transform="translate(89.9 328.65)" fill="#f0f0f0"/>
      <rect id="Rectangle_26" data-name="Rectangle 26" width="9.645" height="45.781" transform="translate(92.196 333.851)" fill="#fafafa"/>
      <rect id="Rectangle_27" data-name="Rectangle 27" width="30.367" height="67.516" transform="translate(134.491 396.179) rotate(180)" fill="#e0e0e0"/>
      <rect id="Rectangle_28" data-name="Rectangle 28" width="14.225" height="67.516" transform="translate(107.096 328.65)" fill="#f0f0f0"/>
      <rect id="Rectangle_29" data-name="Rectangle 29" width="9.645" height="45.781" transform="translate(109.379 333.851)" fill="#fafafa"/>
      <rect id="Rectangle_30" data-name="Rectangle 30" width="30.367" height="67.516" transform="translate(151.674 396.179) rotate(180)" fill="#e0e0e0"/>
      <rect id="Rectangle_31" data-name="Rectangle 31" width="116.322" height="6.7" transform="translate(70.866 195.172)" fill="#f0f0f0"/>
      <rect id="Rectangle_32" data-name="Rectangle 32" width="116.322" height="6.7" transform="translate(70.866 295.676)" fill="#f0f0f0"/>
      <rect id="Rectangle_33" data-name="Rectangle 33" width="116.322" height="6.7" transform="translate(70.866 396.179)" fill="#f0f0f0"/>
      <rect id="Rectangle_34" data-name="Rectangle 34" width="79.498" height="99.923" transform="translate(188.877 143.285) rotate(180)" fill="#f0f0f0"/>
      <rect id="Rectangle_35" data-name="Rectangle 35" width="94.006" height="99.923" transform="translate(185.824 143.285) rotate(180)" fill="#f5f5f5"/>
      <rect id="Rectangle_36" data-name="Rectangle 36" width="84.172" height="78.255" transform="translate(99.707 135.41) rotate(-90)" fill="#fff"/>
      <circle id="Ellipse_14" data-name="Ellipse 14" cx="17.669" cy="17.669" r="17.669" transform="translate(121.158 75.648)" fill="#f0f0f0"/>
      <rect id="Rectangle_37" data-name="Rectangle 37" width="300.93" height="175.098" transform="translate(593.607 203.547) rotate(180)" fill="#f0f0f0"/>
      <rect id="Rectangle_38" data-name="Rectangle 38" width="336.174" height="175.098" transform="translate(585.259 203.547) rotate(180)" fill="#f5f5f5"/>
      <rect id="Rectangle_39" data-name="Rectangle 39" width="147.5" height="297.053" transform="translate(268.645 189.755) rotate(-90)" fill="#fff"/>
      <rect id="Rectangle_40" data-name="Rectangle 40" width="47.037" height="297.053" transform="translate(268.645 89.292) rotate(-90)" fill="#fafafa"/>
      <rect id="Rectangle_41" data-name="Rectangle 41" width="62.207" height="297.053" transform="translate(268.645 189.755) rotate(-90)" fill="#f0f0f0"/>
      <rect id="Rectangle_42" data-name="Rectangle 42" width="8.875" height="133.816" transform="translate(583.016 308.441)" fill="#e6e6e6"/>
      <rect id="Rectangle_43" data-name="Rectangle 43" width="6.16" height="133.816" transform="translate(588.528 308.441)" fill="#f0f0f0"/>
      <rect id="Rectangle_44" data-name="Rectangle 44" width="234.171" height="15.089" transform="translate(596.592 323.544) rotate(180)" fill="#f0f0f0"/>
      <rect id="Rectangle_45" data-name="Rectangle 45" width="8.875" height="118.727" transform="translate(349.575 323.53)" fill="#e6e6e6"/>
      <rect id="Rectangle_46" data-name="Rectangle 46" width="6.16" height="118.727" transform="translate(355.086 323.53)" fill="#f0f0f0"/>
      <rect id="Rectangle_47" data-name="Rectangle 47" width="8.875" height="118.727" transform="translate(293.433 323.53)" fill="#e6e6e6"/>
      <rect id="Rectangle_48" data-name="Rectangle 48" width="6.16" height="118.727" transform="translate(298.945 323.53)" fill="#e6e6e6"/>
      <rect id="Rectangle_49" data-name="Rectangle 49" width="8.875" height="118.727" transform="translate(526.875 323.53)" fill="#e6e6e6"/>
      <rect id="Rectangle_50" data-name="Rectangle 50" width="6.16" height="118.727" transform="translate(532.386 323.53)" fill="#e6e6e6"/>
      <rect id="Rectangle_51" data-name="Rectangle 51" width="68.988" height="15.089" transform="translate(293.433 308.441)" fill="#e6e6e6"/>
      <path id="Path_32" data-name="Path 32" d="M410.068,272.029c-7.551,8.443-34.622,17.237-42.62-9.294-5.822-19.277,26.72-33.542,46.2-34.366,20.979-.878,33.38,6.511,33.38,6.511a463.569,463.569,0,0,0-36.959,37.149Z" transform="translate(128.681 5.802)" fill="#e6e6e6"/>
      <path id="Path_33" data-name="Path 33" d="M379.438,279.355c10.631,1.135,28.706-6.984,21.546-29.3s-21.776-24.4-31.448-26.261c-12.333-2.377-36.986,7.7-36.986,7.7S368.82,278.234,379.438,279.355Z" transform="translate(116.677 4.095)" fill="#e6e6e6"/>
      <path id="Path_34" data-name="Path 34" d="M393.069,246.076c-13.387,6.079-24.613,8.105-18.277-10.807s14.049-28.03,26.625-31.88c16.021-4.917,35.041,5.647,35.041,5.647S406.443,240,393.069,246.076Z" transform="translate(130.861 -3.395)" fill="#e6e6e6"/>
      <path id="Path_35" data-name="Path 35" d="M384.922,244.57c10.212,3.026,18.264,2.391,10.645-15.859s-12.7-20.533-21.438-24.032c-16.21-6.471-29.719,5.147-29.719,5.147S374.7,241.544,384.922,244.57Z" transform="translate(120.839 -3.172)" fill="#e6e6e6"/>
      <path id="Path_36" data-name="Path 36" d="M396.285,220.951c-11.1,9.726-21.33,15.886-20.871.77s8.308-28.679,20.263-34.771c8.227-4.2,26.409-2.31,26.409-2.31S407.389,211.225,396.285,220.951Z" transform="translate(131.711 -9.664)" fill="#e6e6e6"/>
      <path id="Path_37" data-name="Path 37" d="M375.01,216.518c7.268,5.8,13.509,8.848,11.28-3.445S379.941,197.485,373,193.149a25.355,25.355,0,0,0-18.547-2.85S367.742,210.723,375.01,216.518Z" transform="translate(124.361 -7.757)" fill="#e6e6e6"/>
      <path id="Path_38" data-name="Path 38" d="M425.653,260.45H352.68l9.6,30.908h53.764Z" transform="translate(123.74 17.083)" fill="#f0f0f0"/>
    </g>
    <g id="freepik--Shadow--inject-33" transform="translate(75.797 527.692)">
      <ellipse id="freepik--path--inject-33" cx="261.918" cy="15.292" rx="261.918" ry="15.292" fill="#f5f5f5"/>
    </g>
    <g id="freepik--character-2--inject-33" transform="translate(304.381 147.819)">
      <path id="Path_39" data-name="Path 39" d="M306.167,189.6l-1.662,2.2c-.54.7-1.108,1.351-1.662,2.04-1.094,1.351-2.269,2.7-3.431,3.945a103.654,103.654,0,0,1-7.551,7.457c-1.351,1.2-2.7,2.378-4.2,3.526s-3.026,2.242-4.674,3.323a37.459,37.459,0,0,1-12.158,5.4l-.473.108a6.872,6.872,0,0,1-1.351.176,15.791,15.791,0,0,1-6.444-1.135,19.954,19.954,0,0,1-4.053-2.175,35.518,35.518,0,0,1-5.4-4.687,69.539,69.539,0,0,1-7.511-9.551,112.747,112.747,0,0,1-5.782-9.848,107.7,107.7,0,0,1-4.755-10.266,5.4,5.4,0,0,1,9.091-5.593l.122.135,6.957,7.862c2.337,2.594,4.674,5.147,7.051,7.538a70.762,70.762,0,0,0,7.051,6.376,16.573,16.573,0,0,0,3.066,1.932,1.58,1.58,0,0,0,.729.189,1.9,1.9,0,0,0-1.148-.257l-1.851.3a27.554,27.554,0,0,0,5.106-3.35,80.8,80.8,0,0,0,6.092-5.579c2.013-2.067,4.053-4.228,6.038-6.471l2.945-3.391,2.81-3.31.338-.392A10.807,10.807,0,0,1,306.3,189.615Z" transform="translate(-222.055 -106.62)" fill="#263238"/>
      <path id="Path_40" data-name="Path 40" d="M240.38,181.613c-5.214.811-10.172-7.646-10.172-7.646l-3.9-4.647a4.215,4.215,0,0,1,0-5.4L229.668,160a4.215,4.215,0,0,1,6-.392l4.471,4.053a7.523,7.523,0,0,1,1.864,2.58l1.743,4.053a9.686,9.686,0,0,1-1.594,10.226l-.324.378A2.58,2.58,0,0,1,240.38,181.613Z" transform="translate(-225.325 -111.492)" fill="#ffc3bd"/>
      <path id="Path_41" data-name="Path 41" d="M344.918,345.568c-6.606-48.928-9.213-77.958-13.509-102.287l-41.62-.621s18.682,78.026,27.571,109.879S376.528,463.5,376.528,463.5l11.05-6.565S356.806,382.622,344.918,345.568Z" transform="translate(-202.706 -81.977)" fill="#263238"/>
      <path id="Path_42" data-name="Path 42" d="M348.579,420.18s8.321-10.172,8.186-13.617l9.159-5.4,5.039,10.064-4.417,2.7-1.351-.419-.959,1.783c-4.566,2.7-11.915,6.835-15.332,7.47A2.7,2.7,0,0,1,348.579,420.18Z" transform="translate(-182.146 -26.367)" fill="#263238"/>
      <path id="Path_43" data-name="Path 43" d="M336.156,170.519c-14.711-1.824-35.744-1.662-49.847.783a17.075,17.075,0,0,0-13.846,14.36c-2.972,21.289-.419,58.506,1.486,95.911,32.191,11.023,66.192-.149,66.192-.149,1.175-7.565-1.459-32.326-3.242-45.537,2.7-13.657,8.294-29.287,12.023-47.415a14.859,14.859,0,0,0-12.766-17.953Z" transform="translate(-209.263 -107.72)" fill="#263238"/>
      <path id="Path_44" data-name="Path 44" d="M292.249,170.169a15.116,15.116,0,0,0-3.58,8.173c-1.513,8.646.2,21.978,4.755,37.257,4.363-12.306,13.752-28.6,19.533-38.054,2.7-4.485,4.633-7.443,4.809-7.713h0A53.1,53.1,0,0,0,292.249,170.169Z" transform="translate(-203.288 -108.018)" fill="#407bff"/>
      <path id="Path_45" data-name="Path 45" d="M314.729,149.39l-16.751,13.738c2.161,5.768,2.85,11.766-6.619,14.076-2.364,3.134,1.81,6.754,5.728,8.348,6.322-.783,15.224-2.891,19.074-8.105C314.945,173.179,313.108,157.914,314.729,149.39Z" transform="translate(-202.398 -114.702)" fill="#ffc3bd"/>
      <path id="Path_46" data-name="Path 46" d="M292.46,174.243a12.631,12.631,0,0,0,3.472,5.241c2.553,0,6.295-2.877,6.295-2.877s-1.445-4.053-3.472-4.877C293.568,173,292.46,174.243,292.46,174.243Z" transform="translate(-201.77 -106.864)" fill="#fff"/>
      <path id="Path_47" data-name="Path 47" d="M299.475,176.357a3.742,3.742,0,0,0-2.823-.716c-3.35,4.769-5.484,12.158-7.551,20.7a142.023,142.023,0,0,0,3.985,16.751,134.6,134.6,0,0,1,6.511-14.86,88.634,88.634,0,0,1-.122-21.87Z" transform="translate(-202.949 -105.506)" fill="#fff"/>
      <path id="Path_48" data-name="Path 48" d="M305.847,153.63l-9.767,8a21.429,21.429,0,0,1,1.175,4.134c3.782.27,9.051-3.553,9.294-7.011a14.21,14.21,0,0,0-.7-5.12Z" transform="translate(-200.5 -113.214)" opacity="0.2"/>
      <path id="Path_49" data-name="Path 49" d="M290.794,132.56c-5.4,3.134-2.607,6.254-2.607,6.254s-2.31,6.214.756,10.5C303.316,132.1,290.794,132.56,290.794,132.56Z" transform="translate(-203.562 -120.607)" fill="#263238"/>
      <path id="Path_50" data-name="Path 50" d="M318.314,146.841c-1.526,10.51-1.891,16.737-7.673,21.681-8.726,7.416-21.37,1.351-22.964-9.456-1.486-9.7,1.256-25.261,11.969-28.517a14.643,14.643,0,0,1,18.669,16.291Z" transform="translate(-203.579 -121.528)" fill="#ffc3bd"/>
      <path id="Path_51" data-name="Path 51" d="M320.507,155.59c-6.754.7-5.5-10.415-3.188-12.6-6.592.122-5.322-4.282-4.512-5.9-10.982,2.31-18.75,2.8-23.708-2.7-3.674-4.053-7.578.486-8.74-3.755,2.7,1.445,7.578-5.782,10.874-2.783s6.579-7.484,11.563-3c6.754,6.011,24.477-10.361,22.856,7.686,9.253,7.794-3.188,12.725-2.378,21.006C320.737,157.332,320.507,155.59,320.507,155.59Z" transform="translate(-206.015 -123.711)" fill="#263238"/>
      <path id="Path_52" data-name="Path 52" d="M311.437,134.444a.689.689,0,0,1-.675-.581.676.676,0,0,1,.581-.756,9.631,9.631,0,0,0,5.4-3.755,4.5,4.5,0,0,0,.662-3.836.689.689,0,0,1,.473-.838.662.662,0,0,1,.824.459,5.917,5.917,0,0,1-.824,4.944,10.807,10.807,0,0,1-6.376,4.363Z" transform="translate(-195.351 -123.382)" fill="#263238"/>
      <path id="Path_53" data-name="Path 53" d="M315.361,150.067a9.213,9.213,0,0,1-5.106,4.836c-3.026,1.135-4.85-1.513-4.255-4.525.54-2.7,2.7-6.538,5.917-6.376a4.174,4.174,0,0,1,3.445,6.065Z" transform="translate(-197.059 -116.594)" fill="#ffc3bd"/>
      <path id="Path_54" data-name="Path 54" d="M299.122,143.159c-.081.865-.594,1.526-1.148,1.472s-.973-.8-.892-1.662.581-1.513,1.148-1.459S299.19,142.308,299.122,143.159Z" transform="translate(-200.151 -117.467)" fill="#263238"/>
      <path id="Path_55" data-name="Path 55" d="M291.532,142.982c-.081.865-.594,1.513-1.148,1.459s-.973-.783-.892-1.648.581-1.513,1.148-1.472S291.532,142.117,291.532,142.982Z" transform="translate(-202.814 -117.534)" fill="#263238"/>
      <path id="Path_56" data-name="Path 56" d="M294.488,143.4a30.081,30.081,0,0,1-4.728,6.984,5.012,5.012,0,0,0,4.053,1.162Z" transform="translate(-202.717 -116.803)" fill="#ed847e"/>
      <path id="Path_57" data-name="Path 57" d="M302.1,141.809a.54.54,0,0,0,.257,0,.513.513,0,0,0,.284-.662,5.106,5.106,0,0,0-3.431-3.134.5.5,0,0,0-.594.392.513.513,0,0,0,.392.608h0a4.053,4.053,0,0,1,2.7,2.513.527.527,0,0,0,.392.284Z" transform="translate(-199.615 -118.697)" fill="#263238"/>
      <path id="Path_58" data-name="Path 58" d="M288.259,140.628a.513.513,0,0,0,.473-.081,3.958,3.958,0,0,1,3.58-.7.5.5,0,0,0,.648-.311.513.513,0,0,0-.3-.648,5.025,5.025,0,0,0-4.539.851.513.513,0,0,0-.108.716A.622.622,0,0,0,288.259,140.628Z" transform="translate(-203.364 -118.462)" fill="#263238"/>
      <path id="Path_59" data-name="Path 59" d="M314.617,169.46h0c-.176.27-2.094,3.229-4.809,7.713a21.356,21.356,0,0,1-9.794,5.133c.554-1.81-1.067-7.916-2.864-9.794a47.9,47.9,0,0,0,17.467-3.053Z" transform="translate(-200.124 -107.66)" fill="#407bff"/>
      <path id="Path_60" data-name="Path 60" d="M314.617,169.46h0c-.176.27-2.094,3.229-4.809,7.713a21.356,21.356,0,0,1-9.794,5.133c.554-1.81-1.067-7.916-2.864-9.794a47.9,47.9,0,0,0,17.467-3.053Z" transform="translate(-200.124 -107.66)" fill="#fff" opacity="0.3"/>
      <path id="Path_61" data-name="Path 61" d="M300.134,172.435a15.589,15.589,0,0,0-8.416,8.956,5.768,5.768,0,0,1-3.188-3.5,15.116,15.116,0,0,1,3.58-8.173C293.082,170.963,295.757,172.192,300.134,172.435Z" transform="translate(-203.149 -107.569)" fill="#407bff"/>
      <path id="Path_62" data-name="Path 62" d="M300.134,172.435a15.589,15.589,0,0,0-8.416,8.956,5.768,5.768,0,0,1-3.188-3.5,15.116,15.116,0,0,1,3.58-8.173C293.082,170.963,295.757,172.192,300.134,172.435Z" transform="translate(-203.149 -107.569)" fill="#fff" opacity="0.3"/>
      <path id="Path_63" data-name="Path 63" d="M331.843,175.858c2.7,3.08,5.012,6.038,7.362,9.186s4.566,6.322,6.673,9.686a105.108,105.108,0,0,1,6.025,10.6,63.6,63.6,0,0,1,2.634,6.025,37.59,37.59,0,0,1,2.013,7.47l.108.662a8.106,8.106,0,0,1-.392,4.053,39.526,39.526,0,0,1-6.538,11.239,50.7,50.7,0,0,1-3.9,4.35c-1.351,1.351-2.7,2.7-4.053,3.85a86.674,86.674,0,0,1-8.74,6.552,77.968,77.968,0,0,1-9.456,5.4,5.4,5.4,0,0,1-6.39-8.618l.243-.257c2.094-2.269,4.4-4.714,6.484-7.105s4.161-4.823,6.011-7.281a61.99,61.99,0,0,0,4.917-7.322,24.509,24.509,0,0,0,2.7-6.66l-.284,4.66a25.4,25.4,0,0,0-1.351-3.174,44.205,44.205,0,0,0-2.242-4.053c-.892-1.351-1.743-2.8-2.7-4.2s-1.918-2.837-2.931-4.255c-2.04-2.823-4.147-5.687-6.322-8.51l-6.484-8.362-.135-.176a10.806,10.806,0,1,1,16.671-13.753Z" transform="translate(-194.697 -106.79)" fill="#263238"/>
      <path id="Path_64" data-name="Path 64" d="M326.313,233.455a2.459,2.459,0,0,0-.5-1.621l-2.945-4.053a2.512,2.512,0,0,0-2.513-1l-4.188.784a28.841,28.841,0,0,0-11.28,4.8l-1.108.784a4.2,4.2,0,0,0-.946,5.93l3.066,4.147a4.2,4.2,0,0,0,5.3,1.243l5.4-2.783S326,238.723,326.313,233.455Z" transform="translate(-198.42 -87.564)" fill="#ffc3bd"/>
      <path id="Path_65" data-name="Path 65" d="M319.87,225.773a19.615,19.615,0,0,0-5.9.122c-1.2,3.093,3.9,12.4,6.525,14.022,1.675-.392,5.484-3.661,5.484-3.661C323.734,233.271,321.41,228.056,319.87,225.773Z" transform="translate(-194.287 -87.961)" fill="#407bff"/>
      <path id="Path_66" data-name="Path 66" d="M245.411,175.54a19.427,19.427,0,0,0-.77-5.849c-3.2-.851-11.888,5.241-13.211,8.024.567,1.621,4.242,5.052,4.242,5.052C238.4,180.2,243.318,177.31,245.411,175.54Z" transform="translate(-223.183 -107.607)" fill="#407bff"/>
      <path id="Path_67" data-name="Path 67" d="M354.742,410.474l12.482-6.957-2.85-7.727-13.873,9.4Z" transform="translate(-181.406 -28.251)" fill="#407bff"/>
      <path id="Path_68" data-name="Path 68" d="M309.491,349.979c2.972-49.36,8.672-82.4,6.295-106.718l-41.566-.621s4.215,78.35,6.754,110.932S297.563,466.72,297.563,466.72h12.86S314,388.181,309.491,349.979Z" transform="translate(-208.169 -81.984)" fill="#263238"/>
      <path id="Path_69" data-name="Path 69" d="M276.273,415.538s20.9-4.512,22.222-7.538h10.658l.338,11.239h-8.686l-1.054-1.027-1.621,1.027c-5.309,0-19.236-.2-22.613-1.351a2.378,2.378,0,0,1,.756-2.351Z" transform="translate(-207.737 -23.967)" fill="#263238"/>
      <path id="Path_70" data-name="Path 70" d="M291.445,410.813l14.319.392.662-8.105-16.616,1Z" transform="translate(-202.7 -25.686)" fill="#407bff"/>
      <path id="Path_71" data-name="Path 71" d="M296.187,152.486a9.968,9.968,0,0,1-1.648-.081.27.27,0,0,1-.216-.338.3.3,0,0,1,.338-.243,8.362,8.362,0,0,0,6.876-2.148.284.284,0,1,1,.405.378A8.727,8.727,0,0,1,296.187,152.486Z" transform="translate(-201.12 -114.65)" fill="#263238"/>
    </g>
    <g id="freepik--Graphic--inject-33" transform="translate(139.138 68.06)">
      <rect id="Rectangle_52" data-name="Rectangle 52" width="11.185" height="1.351" transform="translate(331.581 332.449)" fill="#407bff"/>
      <rect id="Rectangle_53" data-name="Rectangle 53" width="25.126" height="1.351" transform="translate(351.047 332.449)" fill="#407bff"/>
      <path id="Path_72" data-name="Path 72" d="M434.877,270.25h-156.7l-25.261,46.672a3.107,3.107,0,0,0,2.7,4.579H434.877l12.806-25.666Z" transform="translate(-50.531 7.462)" fill="#407bff"/>
      <path id="Path_73" data-name="Path 73" d="M260.859,116.19A113.472,113.472,0,0,1,363.768,222.813a3.093,3.093,0,0,0,4.485,2.621l19.034-9.456a4.985,4.985,0,0,1,4.579,0l18.682,9.334a3.107,3.107,0,0,0,4.5-2.918A164.71,164.71,0,0,0,260.467,64.79L247.81,90.105Z" transform="translate(-52.192 -64.625)" fill="#407bff"/>
      <path id="Path_74" data-name="Path 74" d="M260.859,116.19A113.472,113.472,0,0,1,363.768,222.813a3.093,3.093,0,0,0,4.485,2.621l19.034-9.456a4.985,4.985,0,0,1,4.579,0l18.682,9.334a3.107,3.107,0,0,0,4.5-2.918A164.71,164.71,0,0,0,260.467,64.79L247.81,90.105Z" transform="translate(-52.192 -64.625)" fill="#fff" opacity="0.6"/>
      <path id="Path_75" data-name="Path 75" d="M179.7,218.858A113.472,113.472,0,0,1,286.34,115.949a3.107,3.107,0,0,0,2.607-4.485l-9.524-19.034a5.174,5.174,0,0,1,0-4.593l9.348-18.669a3.12,3.12,0,0,0-2.931-4.5A164.8,164.8,0,0,0,128.29,219.222l25.275,12.658Z" transform="translate(-94.127 -64.668)" fill="#407bff"/>
      <path id="Path_76" data-name="Path 76" d="M179.7,218.858A113.472,113.472,0,0,1,286.34,115.949a3.107,3.107,0,0,0,2.607-4.485l-9.524-19.034a5.174,5.174,0,0,1,0-4.593l9.348-18.669a3.12,3.12,0,0,0-2.931-4.5A164.8,164.8,0,0,0,128.29,219.222l25.275,12.658Z" transform="translate(-94.127 -64.668)" fill="#fff" opacity="0.4"/>
      <path id="Path_77" data-name="Path 77" d="M291.2,298.375h0A113.472,113.472,0,0,1,188.28,191.765a3.093,3.093,0,0,0-4.471-2.621l-19.02,9.456a5.147,5.147,0,0,1-2.31.554,5.08,5.08,0,0,1-2.283-.554l-18.7-9.334a3.12,3.12,0,0,0-4.5,2.918,163.98,163.98,0,0,0,45.186,106.6H103l12.968,25.95-12.509,25.085H291.58l12.7-25.356Z" transform="translate(-103 -21.109)" fill="#407bff"/>
      <path id="Path_78" data-name="Path 78" d="M291.2,298.375h0A113.472,113.472,0,0,1,188.28,191.765a3.093,3.093,0,0,0-4.471-2.621l-19.02,9.456a5.147,5.147,0,0,1-2.31.554,5.08,5.08,0,0,1-2.283-.554l-18.7-9.334a3.12,3.12,0,0,0-4.5,2.918,163.98,163.98,0,0,0,45.186,106.6H103l12.968,25.95-12.509,25.085H291.58l12.7-25.356Z" transform="translate(-103 -21.109)" fill="#fff" opacity="0.2"/>
      <path id="Path_79" data-name="Path 79" d="M361.9,197.326h0A113.472,113.472,0,0,1,255.275,300.22a3.107,3.107,0,0,0-2.621,4.485l9.456,19.034a5.147,5.147,0,0,1,0,4.579L252.776,347a3.107,3.107,0,0,0,2.918,4.5A164.71,164.71,0,0,0,413.3,196.948L387.983,184.29Z" transform="translate(-50.607 -22.698)" fill="#407bff"/>
      <path id="Path_80" data-name="Path 80" d="M361.9,197.326h0A113.472,113.472,0,0,1,255.275,300.22a3.107,3.107,0,0,0-2.621,4.485l9.456,19.034a5.147,5.147,0,0,1,0,4.579L252.776,347a3.107,3.107,0,0,0,2.918,4.5A164.71,164.71,0,0,0,413.3,196.948L387.983,184.29Z" transform="translate(-50.607 -22.698)" fill="#fff" opacity="0.8"/>
    </g>
    <g id="freepik--character-1--inject-33" transform="translate(150.003 164.094)">
      <path id="Path_81" data-name="Path 81" d="M281.946,198.132l-7.389-21.141-11.239,1.04a53.477,53.477,0,0,0-9.456-10.6l2.31-11.05-20.222-9.726-7.214,8.686a53.062,53.062,0,0,0-14.211-.81l-6.173-9.456-21.141,7.389,1.04,11.239a53.477,53.477,0,0,0-10.6,9.456l-11.064-2.31-9.726,20.182,8.7,7.214a53.062,53.062,0,0,0-.811,14.211l-9.456,6.173,7.389,21.141,11.226-1.04a53.671,53.671,0,0,0,9.456,10.618l-2.31,11.05,20.182,9.726,7.214-8.7a52.965,52.965,0,0,0,14.2.81l6.187,9.456,21.141-7.389-1.04-11.226a54.034,54.034,0,0,0,10.6-9.456l11.05,2.31,9.726-20.182-8.686-7.2a53.086,53.086,0,0,0,.81-14.211Zm-55.169,33.555a24.667,24.667,0,1,1,15.143-31.421,24.667,24.667,0,0,1-15.143,31.421Z" transform="translate(-95.518 -132.492)" fill="#407bff"/>
      <path id="Path_82" data-name="Path 82" d="M154.927,196.649c-.635,1-1.351,2.31-2.148,3.485s-1.432,2.459-2.121,3.715c-1.351,2.5-2.7,5.039-3.972,7.619a154.008,154.008,0,0,0-6.754,15.832c-.851,2.134,0,.865-.986-.473-.459-.554-.756-.54-.594-.446a2.918,2.918,0,0,0,.973.338,29.72,29.72,0,0,0,7.605.27c5.606-.338,11.536-1.189,17.291-2.121h.027a3.026,3.026,0,0,1,1.621,5.8,97.26,97.26,0,0,1-17.831,5.5c-1.567.3-3.174.554-4.863.716a26.208,26.208,0,0,1-5.4,0,14.669,14.669,0,0,1-3.377-.77,9.024,9.024,0,0,1-4.174-3.053,8.105,8.105,0,0,1-1.351-2.972,9.172,9.172,0,0,1-.189-2.85,11.338,11.338,0,0,1,.405-2.134l.324-1.135a123.055,123.055,0,0,1,6.376-17.629c1.27-2.85,2.7-5.66,4.174-8.4q1.135-2.067,2.35-4.053a47.956,47.956,0,0,1,2.7-4.053,6.079,6.079,0,0,1,10.091,6.754Z" transform="translate(-104.868 -117.649)" fill="#7f3e3b"/>
      <path id="Path_83" data-name="Path 83" d="M169.977,222.535l-2.823,2.337a4.228,4.228,0,0,1-3.809.851l-6.227-1.635a7.957,7.957,0,0,1-5.4-4.89l-.554-1.486c4.4-4.2,12.252-5.512,12.252-5.512l2.2-.608a3.539,3.539,0,0,1,4.458,2.364l1.351,4.336A4.053,4.053,0,0,1,169.977,222.535Z" transform="translate(-96.967 -109.21)" fill="#7f3e3b"/>
      <path id="Path_84" data-name="Path 84" d="M154.017,161.07c1.945,7.173,4.323,20.263-.338,25.1,0,0-3.58,6.754,17.561,5.633,14.859-.756,4.714-5.633,4.714-5.633-8.105-1.918-8.375-7.849-7.389-13.414Z" transform="translate(-96.164 -126.878)" fill="#7f3e3b"/>
      <path id="Path_85" data-name="Path 85" d="M135.779,384.462l-13.711-5.052c-1.2,10.591-5.5,26.761-5.5,26.761l9.618,4.052S132.591,390.906,135.779,384.462Z" transform="translate(-109.103 -50.272)" fill="#7f3e3b"/>
      <path id="Path_86" data-name="Path 86" d="M130.37,420.028c-7.335-5.4-6.754-5.106-10.807-8.267-3.445-2.7-4.579-2.877-7.376-5.025-2.337-1.783-.756-4.052,1.7-6.322.932-.851,2.107-1.8,3.445-3.026a2.188,2.188,0,0,1,2.783-.135l8.591,6.282a2.513,2.513,0,0,1,1.013,2.013,15.359,15.359,0,0,0,5.025,11.036C138.394,420.028,133.3,422.176,130.37,420.028Z" transform="translate(-111.043 -44.164)" fill="#263238"/>
      <path id="Path_87" data-name="Path 87" d="M194.264,236S179.823,310.365,168.6,345.014c-11.752,36.473-28.935,76.9-36.73,100.612-2.418.311-9.321-2.567-12.7-5.4,0,0,5.147-62.139,22.762-94.29C140.176,252.129,158.007,236,158.007,236Z" transform="translate(-108.191 -100.588)" fill="#407bff"/>
      <path id="Path_88" data-name="Path 88" d="M194.264,236S179.823,310.365,168.6,345.014c-11.752,36.473-28.935,76.9-36.73,100.612-2.418.311-9.321-2.567-12.7-5.4,0,0,5.147-62.139,22.762-94.29C140.176,252.129,158.007,236,158.007,236Z" transform="translate(-108.191 -100.588)" opacity="0.3"/>
      <path id="Path_89" data-name="Path 89" d="M155.437,256.6,170.3,284.968c-3.4,14.859-7.187,30.354-10.807,42.944C148.723,297.666,155.437,256.6,155.437,256.6Z" transform="translate(-96.192 -93.361)" opacity="0.2"/>
      <path id="Path_90" data-name="Path 90" d="M135.249,389.879a31.072,31.072,0,0,0-.973,4.944.946.946,0,0,1-1.256.8c-5.268-1.351-12.158-5.4-14.414-6.754a1.215,1.215,0,0,1-.594-1.175l.608-4.755a.959.959,0,0,1,1.351-.7l14.481,6.268a1.229,1.229,0,0,1,.8,1.378Z" transform="translate(-108.6 -49.313)" fill="#263238"/>
      <path id="Path_91" data-name="Path 91" d="M187.071,387.86l-13.171.973c2.161,10.51,4.417,27.1,4.417,27.1h10.456S186.909,395.06,187.071,387.86Z" transform="translate(-88.989 -47.307)" fill="#7f3e3b"/>
      <path id="Path_92" data-name="Path 92" d="M199.575,419.523c-9.091,0-8.443-.135-13.509-.311-4.377-.148-5.4.392-8.943.311-2.931,0-2.823-2.864-1.9-6.106.338-1.243.837-2.7,1.351-4.471a2.364,2.364,0,0,1,2.283-1.756H189.5a2.283,2.283,0,0,1,1.932,1.013,13.968,13.968,0,0,0,10.131,5.93C206.4,414.8,203.209,419.523,199.575,419.523Z" transform="translate(-88.727 -40.525)" fill="#263238"/>
      <path id="Path_93" data-name="Path 93" d="M194.172,236s1.648,64.841,3.12,105.164S195.6,452.853,195.6,452.853c-.3,1.959-10.577,1.175-12.32,0,0,0-19.655-57.817-12.158-107.839-26.315-64.841-18.723-107.42-18.723-107.42Z" transform="translate(-96.887 -100.588)" fill="#407bff"/>
      <path id="Path_94" data-name="Path 94" d="M194.172,236s1.648,64.841,3.12,105.164S195.6,452.853,195.6,452.853c-.3,1.959-10.577,1.175-12.32,0,0,0-19.655-57.817-12.158-107.839-26.315-64.841-18.723-107.42-18.723-107.42Z" transform="translate(-96.887 -100.588)" opacity="0.3"/>
      <path id="Path_95" data-name="Path 95" d="M189.36,392.751c0,1.351.122,3.715.243,5.4a1.108,1.108,0,0,1-.973,1.162,73.225,73.225,0,0,1-13.6-.148.986.986,0,0,1-.892-.811l-.919-4.768a1.108,1.108,0,0,1,1.054-1.351l14.035-.567a1,1,0,0,1,1.054,1.081Z" transform="translate(-89.238 -45.971)" fill="#263238"/>
      <path id="Path_96" data-name="Path 96" d="M150.151,227.877a94.7,94.7,0,0,1-1.351,11.307h45.794l.486-11.658S159.742,225.527,150.151,227.877Z" transform="translate(-97.795 -103.84)" fill="#7f3e3b"/>
      <path id="Path_97" data-name="Path 97" d="M202.362,196.9a194.523,194.523,0,0,1-.324,21.127c-.378,9.186,1.351,11.428,0,26.477-5.025,2.931-38.081,2.823-54.331.716.986-13.009,2.188-21.776-6.619-51.049-2.04-6.754,2.513-13.306,9.794-14.008,1.945-.176,4.053-.338,6.119-.432a165.9,165.9,0,0,1,22.3,0c2.418.2,4.931.5,7.335.811C195.256,181.673,202.092,188.765,202.362,196.9Z" transform="translate(-100.673 -120.464)" fill="#263238"/>
      <path id="Path_98" data-name="Path 98" d="M240.857,219.129l-1.824-3.175a4.309,4.309,0,0,0-3.3-2.107l-6.4-.608a7.956,7.956,0,0,0-6.754,2.7l-1.04,1.216c2.7,5.4,9.618,9.456,9.618,9.456l1.851,1.351a3.553,3.553,0,0,0,5-.675l2.7-3.634A4.052,4.052,0,0,0,240.857,219.129Z" transform="translate(-72.274 -108.587)" fill="#7f3e3b"/>
      <path id="Path_99" data-name="Path 99" d="M192.442,195.678l.594.919c.257.392.5.8.8,1.2.567.811,1.2,1.608,1.851,2.4a61.957,61.957,0,0,0,4.269,4.62c1.526,1.472,3.134,2.9,4.823,4.269s3.458,2.7,5.255,3.89l-1.054-.486a78.207,78.207,0,0,0,7.592,2.323c2.7.689,5.4,1.351,8.105,2.026l8.281,1.972c2.769.675,5.552,1.351,8.308,2.013h0a3.026,3.026,0,0,1-.743,5.971c-2.931,0-5.809-.135-8.7-.27s-5.782-.392-8.686-.662-5.8-.621-8.713-1.081a67.433,67.433,0,0,1-9.051-1.9,3.678,3.678,0,0,1-.784-.324l-.284-.162c-1.094-.635-2.2-1.243-3.3-1.891s-2.175-1.351-3.215-2.094a58.373,58.373,0,0,1-6.106-4.755,53.026,53.026,0,0,1-5.512-5.633c-.851-1.027-1.675-2.08-2.459-3.215-.392-.554-.784-1.148-1.148-1.756-.189-.311-.365-.608-.554-.959s-.338-.594-.621-1.189a6.052,6.052,0,0,1,10.564-5.876Z" transform="translate(-86.578 -115.962)" fill="#7f3e3b"/>
      <path id="Path_100" data-name="Path 100" d="M177.411,180.72c8.916,2.364,16.562,10.01,27.017,25.1-1.459,6.16-14.859,13.279-14.859,13.279S161.66,191.3,177.411,180.72Z" transform="translate(-89.447 -119.984)" fill="#263238"/>
      <path id="Path_101" data-name="Path 101" d="M171.191,151.739c.324.932,1.094,1.54,1.7,1.351s.824-1.067.486-2-1.094-1.553-1.7-1.351S170.854,150.807,171.191,151.739Z" transform="translate(-89.995 -130.867)" fill="#263238"/>
      <path id="Path_102" data-name="Path 102" d="M171.33,150.15l1.986-1.27S172.8,150.947,171.33,150.15Z" transform="translate(-89.89 -131.155)" fill="#263238"/>
      <path id="Path_103" data-name="Path 103" d="M171.67,152.5a29.165,29.165,0,0,0,5.4,5.012,3.918,3.918,0,0,1-3.08,1.553Z" transform="translate(-89.771 -129.885)" fill="#630f0f"/>
      <path id="Path_104" data-name="Path 104" d="M171.536,145.992a.5.5,0,0,0,.338-.23.581.581,0,0,0-.216-.784,6.119,6.119,0,0,0-5.336-.608.527.527,0,0,0-.243.743.621.621,0,0,0,.784.284,4.85,4.85,0,0,1,4.215.527A.621.621,0,0,0,171.536,145.992Z" transform="translate(-91.757 -132.861)" fill="#263238"/>
      <path id="Path_105" data-name="Path 105" d="M147.792,160.622c4.458,10.915,6.106,15.616,13.7,19.736,11.415,6.187,23.91-.878,22.816-12.712-.973-10.645-8.105-26.693-20.56-28.057a15.1,15.1,0,0,0-15.954,21.033Z" transform="translate(-98.597 -134.468)" fill="#7f3e3b"/>
      <path id="Path_106" data-name="Path 106" d="M175.239,161.656c3.661,8.024,3.188,30.773-17.25,23.721s-19.007-18.142-13.509-27.017c-11.091-9.929,3.242-17.8,16.413-21.384S185.627,136.611,175.239,161.656Z" transform="translate(-100.702 -135.759)" fill="#263238"/>
      <path id="Path_107" data-name="Path 107" d="M155.885,156.21a8.727,8.727,0,1,1-10.294-6.754A8.726,8.726,0,0,1,155.885,156.21Z" transform="translate(-101.368 -131.015)" fill="#407bff"/>
      <path id="Path_108" data-name="Path 108" d="M157.307,172.888c4.053-8.105.756-18.183-5.525-24.694-11.888-12.333-28.368-4.228-23.775,7.97,5.4,14.549-23.073,29.5-6.471,38.121,16.21,8.443,43.227-6.444,35.636-21.1C157.213,173.05,157.267,173.05,157.307,172.888Z" transform="translate(-109.207 -133.55)" fill="#263238"/>
      <path id="Path_109" data-name="Path 109" d="M163.1,157.268a8.105,8.105,0,0,0,5.4,3.782c2.7.432,3.593-2.7,2.391-5.728-1.094-2.7-3.836-6.146-6.39-5.2S161.484,154.7,163.1,157.268Z" transform="translate(-93.107 -130.776)" fill="#7f3e3b"/>
      <path id="Path_110" data-name="Path 110" d="M152.443,180c-8,1.229-11.2,3.661-17.723,19.723,2.958,5.984,16.832,11.725,16.832,11.725S160.765,190.7,152.443,180Z" transform="translate(-102.735 -120.236)" fill="#263238"/>
      <path id="Path_111" data-name="Path 111" d="M196.169,239.891a220.313,220.313,0,0,1-49.293-.108,1.121,1.121,0,0,1-.851-1.567c.405-.946.8-1.891,1.189-2.837a1.054,1.054,0,0,1,1.067-.648,216.254,216.254,0,0,0,47.388,0,1.067,1.067,0,0,1,1.148.986c.095.986.2,1.959.3,2.945a1.108,1.108,0,0,1-.946,1.229Z" transform="translate(-98.803 -101.035)" fill="#263238"/>
    </g>
  </g>
</svg>
